<?xml version="1.0" encoding="UTF-8"?>
<!DOCTYPE svg PUBLIC "-//W3C//DTD SVG 1.1//EN" "http://www.w3.org/Graphics/SVG/1.1/DTD/svg11.dtd">
<svg xmlns="http://www.w3.org/2000/svg" version="1.1" width="512px" height="512px" style="shape-rendering:geometricPrecision; text-rendering:geometricPrecision; image-rendering:optimizeQuality; fill-rule:evenodd; clip-rule:evenodd" xmlns:xlink="http://www.w3.org/1999/xlink">
<g><path style="opacity:0.964" fill="#f3e8ee" d="M 18.5,26.5 C 58.1681,26.3333 97.8347,26.5 137.5,27C 142.641,28.8074 146.141,32.3074 148,37.5C 148.667,103.167 148.667,168.833 148,234.5C 145.833,241.01 141.333,244.843 134.5,246C 96.8333,246.667 59.1667,246.667 21.5,246C 16.2114,244.776 12.0447,241.942 9,237.5C 7.34378,170.891 7.01045,104.224 8,37.5C 9.68443,31.9845 13.1844,28.3178 18.5,26.5 Z M 24.5,42.5 C 28.5,42.5 32.5,42.5 36.5,42.5C 37.8738,49.805 40.8738,56.305 45.5,62C 67.1667,62.6667 88.8333,62.6667 110.5,62C 115.126,56.305 118.126,49.805 119.5,42.5C 123.5,42.5 127.5,42.5 131.5,42.5C 131.5,104.833 131.5,167.167 131.5,229.5C 95.5938,229.83 59.7604,229.496 24,228.5C 23.1708,166.43 23.3375,104.43 24.5,42.5 Z M 54.5,42.5 C 70.1808,42.1673 85.8475,42.5006 101.5,43.5C 101.291,44.086 100.957,44.586 100.5,45C 85.5,45.6667 70.5,45.6667 55.5,45C 54.7476,44.3292 54.4142,43.4959 54.5,42.5 Z"/></g>
<g><path style="opacity:0.954" fill="#f3e8ee" d="M 177.5,40.5 C 222.835,40.3333 268.168,40.5 313.5,41C 319.667,43.1667 323.833,47.3333 326,53.5C 326.5,80.8313 326.667,108.165 326.5,135.5C 329.561,135.444 331.728,136.778 333,139.5C 333.667,146.5 333.667,153.5 333,160.5C 329.525,170.311 322.692,176.144 312.5,178C 267.833,178.667 223.167,178.667 178.5,178C 168.283,176.116 161.45,170.282 158,160.5C 157.333,153.5 157.333,146.5 158,139.5C 159.272,136.778 161.439,135.444 164.5,135.5C 164.333,108.165 164.5,80.8313 165,53.5C 167.353,47.3154 171.52,42.982 177.5,40.5 Z M 182.5,57.5 C 224.501,57.3333 266.501,57.5 308.5,58C 309.495,83.759 309.828,109.592 309.5,135.5C 266.833,135.5 224.167,135.5 181.5,135.5C 181.176,109.426 181.51,83.4257 182.5,57.5 Z M 173.5,152.5 C 221.332,151.335 269.332,151.168 317.5,152C 316.7,156.14 314.367,159.14 310.5,161C 267.167,161.667 223.833,161.667 180.5,161C 176.784,159.134 174.45,156.301 173.5,152.5 Z"/></g>
<g><path style="opacity:0.956" fill="#f3e8ee" d="M 351.5,90.5 C 397.835,90.3333 444.168,90.5 490.5,91C 496.667,93.1667 500.833,97.3333 503,103.5C 503.667,134.167 503.667,164.833 503,195.5C 500.833,201.667 496.667,205.833 490.5,208C 477.82,208.167 465.154,208.667 452.5,209.5C 473.565,208.062 482.732,217.729 480,238.5C 479.484,241.034 478.317,243.2 476.5,245C 440.56,246.647 404.56,246.98 368.5,246C 366.152,245.654 364.319,244.487 363,242.5C 356.61,219.936 365.11,208.936 388.5,209.5C 376.18,208.667 363.847,208.167 351.5,208C 345.753,205.921 341.586,202.088 339,196.5C 337.365,166.548 337.032,136.548 338,106.5C 339.849,98.8255 344.349,93.4922 351.5,90.5 Z M 355.5,107.5 C 398.835,107.333 442.168,107.5 485.5,108C 486.126,108.75 486.626,109.584 487,110.5C 487.167,123.5 487.333,136.5 487.5,149.5C 487.65,163.257 487.15,176.924 486,190.5C 485.25,191.126 484.416,191.626 483.5,192C 462.667,192.167 441.833,192.333 421,192.5C 399.105,192.651 377.272,192.151 355.5,191C 354.178,163.196 354.178,135.363 355.5,107.5 Z M 405.5,208.5 C 415.522,208.168 425.522,208.501 435.5,209.5C 430.5,209.833 425.5,210.167 420.5,210.5C 415.119,210.494 410.119,209.828 405.5,208.5 Z M 378.5,227.5 C 406.841,227.167 435.175,227.5 463.5,228.5C 449.333,228.833 435.167,229.167 421,229.5C 406.484,229.499 392.317,228.833 378.5,227.5 Z"/></g>
<g><path style="opacity:0.926" fill="#f3e8ee" d="M 236.5,203.5 C 264.189,202.006 288.356,210.34 309,228.5C 312.514,238.641 309.014,243.141 298.5,242C 263.167,213.333 227.833,213.333 192.5,242C 183.386,243.553 179.553,239.72 181,230.5C 196.417,215.298 214.917,206.298 236.5,203.5 Z"/></g>
<g><path style="opacity:0.909" fill="#f3e8ee" d="M 67.5,208.5 C 75.5852,208.099 83.5852,208.599 91.5,210C 96.8333,215 96.8333,220 91.5,225C 82.5,225.667 73.5,225.667 64.5,225C 58.5586,218.143 59.5586,212.643 67.5,208.5 Z"/></g>
<g><path style="opacity:0.921" fill="#f3e8ee" d="M 234.5,231.5 C 257.081,228.75 276.581,235.083 293,250.5C 294.743,260.868 290.577,264.701 280.5,262C 265.295,248.758 247.962,245.091 228.5,251C 220.581,254.54 213.081,258.706 206,263.5C 198.526,262.23 195.859,257.896 198,250.5C 208.361,240.571 220.527,234.237 234.5,231.5 Z"/></g>
<g><path style="opacity:0.915" fill="#f3e8ee" d="M 239.5,258.5 C 249.341,257.862 258.674,259.695 267.5,264C 270.884,265.932 273.718,268.432 276,271.5C 277.5,280.667 273.667,284.5 264.5,283C 251.833,273 239.167,273 226.5,283C 215.947,284.074 212.447,279.574 216,269.5C 222.968,263.798 230.801,260.131 239.5,258.5 Z"/></g>
<g><path style="opacity:0.934" fill="#f3e8ee" d="M 151.5,282.5 C 164.249,282.187 176.249,285.021 187.5,291C 226.167,291.667 264.833,291.667 303.5,291C 330.805,277.726 355.972,280.892 379,300.5C 389.322,311.479 395.656,324.479 398,339.5C 400.522,370.976 402.689,402.476 404.5,434C 405.007,450.304 399.674,464.304 388.5,476C 376.768,485.717 364.101,487.05 350.5,480C 346.631,476.466 343.131,472.633 340,468.5C 328.033,447.038 315.867,425.705 303.5,404.5C 264.833,403.167 226.167,403.167 187.5,404.5C 175.133,425.705 162.967,447.038 151,468.5C 137.929,486.53 122.096,489.363 103.5,477C 88.9629,461.712 83.4629,443.545 87,422.5C 88.7592,393.109 91.0926,363.776 94,334.5C 98.751,313.093 110.918,297.593 130.5,288C 137.433,285.352 144.433,283.518 151.5,282.5 Z M 152.5,299.5 C 163.293,299.532 173.293,302.365 182.5,308C 224.5,308.667 266.5,308.667 308.5,308C 333.538,294.255 355.038,298.422 373,320.5C 377.049,326.981 379.716,333.981 381,341.5C 383.498,372.143 385.665,402.809 387.5,433.5C 388.261,446.139 383.928,456.639 374.5,465C 367.292,469.163 361.126,467.996 356,461.5C 342.667,438.167 329.333,414.833 316,391.5C 314.773,389.274 312.939,387.774 310.5,387C 267.167,386.333 223.833,386.333 180.5,387C 178.061,387.774 176.227,389.274 175,391.5C 161.586,415.33 147.919,438.997 134,462.5C 128.914,468.116 123.081,468.949 116.5,465C 107.072,456.639 102.739,446.139 103.5,433.5C 105.243,401.096 107.743,368.763 111,336.5C 117.239,315.417 131.072,303.084 152.5,299.5 Z"/></g>
<g><path style="opacity:0.906" fill="#f3e8ee" d="M 329.5,313.5 C 339.824,312.005 344.99,316.338 345,326.5C 342.299,334.131 337.132,336.631 329.5,334C 323.891,330.723 322.058,325.89 324,319.5C 325.36,316.977 327.193,314.977 329.5,313.5 Z"/></g>
<g><path style="opacity:0.92" fill="#f3e8ee" d="M 145.5,316.5 C 149.909,315.618 153.409,316.952 156,320.5C 156.499,326.491 156.666,332.491 156.5,338.5C 162.176,338.334 167.843,338.501 173.5,339C 178.224,341.435 179.724,345.269 178,350.5C 176.786,352.049 175.286,353.215 173.5,354C 167.843,354.499 162.176,354.666 156.5,354.5C 156.666,360.509 156.499,366.509 156,372.5C 149.994,378.33 144.994,377.663 141,370.5C 140.501,365.177 140.334,359.844 140.5,354.5C 134.075,354.87 127.742,354.37 121.5,353C 117.191,347.58 117.858,342.914 123.5,339C 129.157,338.501 134.824,338.334 140.5,338.5C 140.334,333.156 140.501,327.823 141,322.5C 141.599,319.746 143.099,317.746 145.5,316.5 Z"/></g>
<g><path style="opacity:0.897" fill="#f3e8ee" d="M 307.5,335.5 C 319.675,334.499 324.509,339.832 322,351.5C 315.333,359.5 308.667,359.5 302,351.5C 299.752,344.742 301.586,339.409 307.5,335.5 Z"/></g>
<g><path style="opacity:0.89" fill="#f3e8ee" d="M 351.5,335.5 C 362.313,334.152 367.479,338.819 367,349.5C 363.489,356.562 357.989,358.728 350.5,356C 345.847,352.212 344.347,347.378 346,341.5C 347.36,338.977 349.193,336.977 351.5,335.5 Z"/></g>
<g><path style="opacity:0.892" fill="#f3e8ee" d="M 330.5,357.5 C 343.33,357.495 347.497,363.495 343,375.5C 335.998,381.166 329.664,380.499 324,373.5C 321.72,366.083 323.887,360.75 330.5,357.5 Z"/></g>
<g><path style="opacity:0.969" fill="#d5a128" d="M 233.5,-0.5 C 248.167,-0.5 262.833,-0.5 277.5,-0.5C 370.215,10.5908 439.049,56.9242 484,138.5C 498.984,168.603 508.15,200.27 511.5,233.5C 511.5,248.167 511.5,262.833 511.5,277.5C 498.959,377.766 446.959,449.266 355.5,492C 330.316,502.296 304.316,508.796 277.5,511.5C 262.833,511.5 248.167,511.5 233.5,511.5C 141.784,500.409 73.2844,454.742 28,374.5C 12.4204,343.829 2.92039,311.495 -0.5,277.5C -0.5,262.833 -0.5,248.167 -0.5,233.5C 10.5899,141.787 56.2566,73.287 136.5,28C 167.171,12.4204 199.505,2.92039 233.5,-0.5 Z M 235.5,35.5 C 294.564,31.4702 347.231,47.6369 393.5,84C 290.333,187.167 187.167,290.333 84,393.5C 39.7506,335.934 25.7506,271.601 42,200.5C 66.1667,119 119,66.1667 200.5,42C 212.2,39.2247 223.866,37.0581 235.5,35.5 Z M 418.5,109.5 C 420.716,110.203 422.549,111.536 424,113.5C 477.944,182.424 489.61,258.091 459,340.5C 429.322,406.174 379.822,449.008 310.5,469C 236.815,485.742 170.815,470.409 112.5,423C 110.671,421.887 109.837,420.387 110,418.5C 213.035,315.632 315.868,212.632 418.5,109.5 Z"/></g>
</svg>
